<svg xmlns="http://www.w3.org/2000/svg" xmlns:xlink="http://www.w3.org/1999/xlink" width="500" zoomAndPan="magnify" viewBox="0 0 375 374.999991" height="500" preserveAspectRatio="xMidYMid meet" version="1.0"><defs><clipPath id="4e61c4357b"><path d="M 38 114.886719 L 337 114.886719 L 337 270 L 38 270 Z M 38 114.886719 " clip-rule="nonzero"/></clipPath></defs><g clip-path="url(#4e61c4357b)"><path fill="#7c54d9" d="M 187.5 263.414062 C 98.824219 263.414062 44.371094 249 44.371094 238.671875 L 44.371094 238.625 C 57.894531 208.015625 61.964844 170.207031 63.160156 153.039062 C 80.5625 165.996094 134.273438 172.722656 187.460938 172.722656 C 240.644531 172.722656 294.359375 165.996094 311.757812 153.039062 C 312.957031 170.238281 317.039062 208.167969 330.625 238.804688 C 330.15625 249.128906 275.792969 263.414062 187.5 263.414062 Z M 187.460938 121.15625 C 264.175781 121.15625 311.28125 134.335938 311.28125 143.785156 C 311.28125 153.230469 264.175781 166.410156 187.460938 166.410156 C 110.742188 166.410156 63.636719 153.230469 63.636719 143.785156 C 63.636719 134.335938 110.742188 121.15625 187.460938 121.15625 Z M 336.660156 236.847656 C 319.136719 197.839844 317.601562 144.242188 317.589844 143.707031 C 317.585938 143.664062 317.582031 143.625 317.582031 143.585938 C 317.121094 124.722656 251.898438 114.847656 187.460938 114.847656 C 123.023438 114.847656 57.804688 124.71875 57.339844 143.582031 C 57.335938 143.625 57.332031 143.664062 57.328125 143.707031 C 57.316406 144.238281 55.785156 197.675781 38.335938 236.667969 C 38.15625 237.070312 38.0625 237.511719 38.0625 237.957031 L 38.0625 238.671875 C 38.0625 259.054688 113.238281 269.722656 187.5 269.722656 C 261.761719 269.722656 336.9375 259.054688 336.9375 238.671875 L 336.9375 238.140625 C 336.9375 237.695312 336.84375 237.253906 336.660156 236.847656 " fill-opacity="1" fill-rule="nonzero"/></g><path fill="#7c54d9" d="M 247.03125 211.003906 C 247.03125 211.007812 247.03125 211.007812 247.027344 211.007812 C 246.742188 211.136719 246.476562 211.304688 246.242188 211.519531 C 246.21875 211.539062 246.199219 211.554688 246.183594 211.574219 C 246.125 211.625 246.070312 211.675781 246.019531 211.734375 C 245.984375 211.773438 245.953125 211.816406 245.914062 211.855469 C 245.886719 211.894531 245.851562 211.929688 245.820312 211.96875 C 245.695312 212.136719 245.585938 212.316406 245.492188 212.507812 C 245.492188 212.507812 245.492188 212.511719 245.492188 212.511719 C 245.480469 212.53125 245.480469 212.546875 245.46875 212.5625 C 245.4375 212.640625 245.402344 212.714844 245.375 212.789062 C 245.355469 212.832031 245.34375 212.878906 245.332031 212.925781 C 245.316406 212.976562 245.300781 213.027344 245.285156 213.082031 C 245.269531 213.136719 245.261719 213.191406 245.246094 213.246094 C 245.238281 213.289062 245.226562 213.335938 245.21875 213.378906 C 245.210938 213.4375 245.207031 213.496094 245.199219 213.554688 C 245.195312 213.597656 245.191406 213.640625 245.1875 213.6875 C 245.183594 213.742188 245.183594 213.796875 245.183594 213.851562 C 245.183594 213.902344 245.179688 213.949219 245.183594 213.996094 C 245.183594 214.046875 245.191406 214.101562 245.195312 214.15625 C 245.199219 214.203125 245.207031 214.253906 245.210938 214.300781 C 245.21875 214.355469 245.226562 214.410156 245.238281 214.464844 C 245.246094 214.507812 245.253906 214.558594 245.265625 214.601562 C 245.28125 214.664062 245.300781 214.722656 245.316406 214.785156 C 245.328125 214.820312 245.339844 214.859375 245.351562 214.898438 C 245.378906 214.976562 245.410156 215.058594 245.445312 215.132812 C 245.453125 215.148438 245.453125 215.164062 245.464844 215.179688 C 245.464844 215.183594 245.464844 215.183594 245.464844 215.1875 C 245.523438 215.3125 245.59375 215.4375 245.667969 215.558594 C 245.683594 215.582031 245.699219 215.609375 245.714844 215.628906 C 245.863281 215.855469 246.046875 216.0625 246.253906 216.25 C 246.28125 216.265625 246.308594 216.289062 246.332031 216.308594 C 246.417969 216.382812 246.507812 216.449219 246.601562 216.507812 C 246.621094 216.523438 246.644531 216.539062 246.664062 216.550781 C 246.761719 216.613281 246.863281 216.671875 246.96875 216.71875 C 252.21875 219.242188 255.609375 224.625 255.609375 230.445312 C 255.609375 238.832031 248.789062 245.65625 240.398438 245.65625 C 232.011719 245.65625 225.1875 238.832031 225.1875 230.445312 C 225.1875 230.152344 225.199219 229.855469 225.214844 229.558594 C 225.308594 227.875 224.0625 226.421875 222.398438 226.246094 C 222.375 226.246094 222.351562 226.246094 222.324219 226.242188 C 222.300781 226.238281 222.273438 226.234375 222.246094 226.230469 C 222.234375 226.230469 222.21875 226.234375 222.207031 226.234375 C 222.148438 226.230469 222.09375 226.226562 222.035156 226.226562 L 152.933594 226.226562 C 152.882812 226.226562 152.835938 226.230469 152.78125 226.234375 C 152.773438 226.234375 152.765625 226.230469 152.753906 226.230469 C 152.738281 226.234375 152.722656 226.234375 152.707031 226.238281 C 152.632812 226.242188 152.5625 226.25 152.492188 226.261719 C 152.457031 226.265625 152.425781 226.273438 152.390625 226.273438 C 152.316406 226.289062 152.25 226.300781 152.179688 226.320312 C 152.148438 226.328125 152.113281 226.335938 152.085938 226.34375 C 152.015625 226.367188 151.949219 226.386719 151.882812 226.410156 C 151.851562 226.421875 151.820312 226.433594 151.789062 226.445312 C 151.722656 226.46875 151.660156 226.496094 151.597656 226.527344 C 151.570312 226.542969 151.539062 226.554688 151.507812 226.570312 C 151.445312 226.597656 151.382812 226.636719 151.324219 226.667969 C 151.296875 226.6875 151.269531 226.703125 151.242188 226.722656 C 151.1875 226.757812 151.125 226.796875 151.066406 226.84375 C 151.046875 226.859375 151.023438 226.875 150.996094 226.894531 C 150.941406 226.9375 150.886719 226.984375 150.832031 227.035156 C 150.808594 227.050781 150.792969 227.070312 150.769531 227.089844 C 150.714844 227.140625 150.664062 227.195312 150.613281 227.25 C 150.597656 227.265625 150.578125 227.285156 150.5625 227.304688 C 150.511719 227.363281 150.464844 227.421875 150.417969 227.484375 C 150.402344 227.5 150.386719 227.523438 150.375 227.539062 C 150.328125 227.605469 150.289062 227.667969 150.246094 227.730469 C 150.234375 227.753906 150.21875 227.773438 150.210938 227.796875 C 150.171875 227.863281 150.136719 227.929688 150.101562 227.996094 C 150.089844 228.019531 150.082031 228.042969 150.070312 228.070312 C 150.039062 228.136719 150.011719 228.203125 149.984375 228.273438 C 149.976562 228.300781 149.960938 228.328125 149.953125 228.355469 C 149.929688 228.421875 149.910156 228.492188 149.894531 228.558594 C 149.882812 228.589844 149.875 228.628906 149.867188 228.660156 C 149.851562 228.722656 149.839844 228.792969 149.824219 228.855469 C 149.820312 228.894531 149.8125 228.933594 149.808594 228.972656 C 149.800781 229.035156 149.796875 229.105469 149.789062 229.167969 C 149.789062 229.210938 149.785156 229.25 149.785156 229.292969 C 149.785156 229.324219 149.78125 229.351562 149.78125 229.378906 C 149.78125 229.417969 149.785156 229.457031 149.785156 229.496094 C 149.785156 229.515625 149.785156 229.539062 149.785156 229.558594 C 149.800781 229.855469 149.8125 230.152344 149.8125 230.445312 C 149.8125 238.832031 142.988281 245.65625 134.601562 245.65625 C 126.214844 245.65625 119.390625 238.832031 119.390625 230.445312 C 119.390625 224.625 122.78125 219.246094 128.027344 216.722656 C 128.132812 216.671875 128.238281 216.617188 128.335938 216.554688 C 128.351562 216.546875 128.363281 216.535156 128.378906 216.523438 C 128.480469 216.457031 128.578125 216.386719 128.667969 216.3125 C 128.691406 216.292969 128.714844 216.277344 128.734375 216.257812 C 128.945312 216.070312 129.128906 215.863281 129.28125 215.636719 C 129.296875 215.613281 129.308594 215.59375 129.324219 215.574219 C 129.457031 215.363281 129.566406 215.136719 129.644531 214.902344 C 129.65625 214.875 129.664062 214.839844 129.675781 214.808594 C 129.695312 214.742188 129.714844 214.679688 129.730469 214.613281 C 129.742188 214.5625 129.75 214.519531 129.757812 214.46875 C 129.769531 214.417969 129.78125 214.363281 129.789062 214.3125 C 129.792969 214.261719 129.796875 214.207031 129.804688 214.15625 C 129.808594 214.105469 129.8125 214.058594 129.816406 214.003906 C 129.816406 213.957031 129.816406 213.90625 129.816406 213.851562 C 129.816406 213.800781 129.816406 213.75 129.8125 213.699219 C 129.808594 213.648438 129.804688 213.597656 129.796875 213.550781 C 129.792969 213.5 129.789062 213.445312 129.78125 213.390625 C 129.769531 213.339844 129.757812 213.289062 129.75 213.238281 C 129.738281 213.1875 129.730469 213.144531 129.71875 213.09375 C 129.699219 213.027344 129.679688 212.96875 129.65625 212.902344 C 129.648438 212.871094 129.640625 212.835938 129.628906 212.800781 C 129.519531 212.503906 129.367188 212.226562 129.175781 211.972656 C 129.164062 211.957031 129.152344 211.945312 129.140625 211.929688 C 129.085938 211.863281 129.035156 211.796875 128.976562 211.738281 C 128.949219 211.710938 128.921875 211.683594 128.894531 211.65625 C 128.851562 211.609375 128.808594 211.566406 128.757812 211.523438 C 128.71875 211.484375 128.675781 211.457031 128.632812 211.417969 C 128.59375 211.390625 128.558594 211.359375 128.519531 211.332031 C 128.351562 211.207031 128.167969 211.101562 127.976562 211.015625 C 127.976562 211.011719 127.976562 211.011719 127.976562 211.011719 C 122.679688 208.589844 119.390625 203.339844 119.390625 197.3125 C 119.390625 188.925781 126.214844 182.101562 134.601562 182.101562 C 142.988281 182.101562 149.8125 188.925781 149.8125 197.3125 C 149.8125 197.601562 149.804688 197.890625 149.789062 198.175781 C 149.785156 198.242188 149.78125 198.308594 149.78125 198.378906 C 149.78125 199.1875 150.089844 199.925781 150.59375 200.484375 C 150.59375 200.488281 150.59375 200.488281 150.597656 200.492188 C 150.660156 200.5625 150.726562 200.628906 150.796875 200.695312 C 150.804688 200.699219 150.8125 200.707031 150.820312 200.710938 C 150.886719 200.773438 150.953125 200.828125 151.023438 200.882812 C 151.039062 200.890625 151.050781 200.902344 151.0625 200.914062 C 151.128906 200.960938 151.195312 201.007812 151.265625 201.050781 C 151.28125 201.066406 151.308594 201.078125 151.324219 201.089844 C 151.390625 201.125 151.453125 201.160156 151.519531 201.195312 C 151.550781 201.207031 151.578125 201.222656 151.609375 201.238281 C 151.667969 201.265625 151.730469 201.292969 151.792969 201.3125 C 151.828125 201.328125 151.867188 201.34375 151.90625 201.355469 C 151.964844 201.375 152.019531 201.394531 152.078125 201.410156 C 152.125 201.421875 152.167969 201.433594 152.214844 201.445312 C 152.265625 201.460938 152.320312 201.46875 152.371094 201.476562 C 152.425781 201.488281 152.480469 201.5 152.539062 201.503906 C 152.585938 201.511719 152.632812 201.515625 152.675781 201.519531 C 152.710938 201.523438 152.738281 201.527344 152.773438 201.527344 C 152.808594 201.527344 152.847656 201.527344 152.886719 201.527344 C 152.902344 201.527344 152.917969 201.53125 152.933594 201.53125 L 222.066406 201.53125 C 222.082031 201.53125 222.097656 201.527344 222.121094 201.527344 C 222.15625 201.527344 222.191406 201.527344 222.226562 201.527344 C 222.261719 201.527344 222.289062 201.523438 222.324219 201.519531 C 222.367188 201.515625 222.414062 201.511719 222.460938 201.503906 C 222.519531 201.5 222.574219 201.488281 222.628906 201.476562 C 222.679688 201.46875 222.734375 201.460938 222.785156 201.445312 C 222.832031 201.433594 222.875 201.421875 222.921875 201.410156 C 222.980469 201.394531 223.035156 201.375 223.09375 201.355469 C 223.132812 201.34375 223.171875 201.328125 223.207031 201.3125 C 223.269531 201.292969 223.332031 201.265625 223.390625 201.238281 C 223.421875 201.222656 223.449219 201.207031 223.480469 201.195312 C 223.546875 201.160156 223.609375 201.125 223.671875 201.089844 C 223.691406 201.078125 223.71875 201.0625 223.738281 201.050781 C 223.804688 201.007812 223.871094 200.960938 223.933594 200.914062 C 223.949219 200.902344 223.964844 200.890625 223.980469 200.878906 C 224.046875 200.828125 224.113281 200.773438 224.179688 200.714844 C 224.1875 200.710938 224.195312 200.699219 224.207031 200.691406 C 224.273438 200.628906 224.335938 200.5625 224.398438 200.496094 C 224.402344 200.492188 224.40625 200.484375 224.410156 200.480469 C 224.476562 200.410156 224.535156 200.335938 224.59375 200.261719 C 224.59375 200.257812 224.597656 200.253906 224.601562 200.246094 C 224.65625 200.167969 224.710938 200.085938 224.765625 200.003906 C 224.765625 200.003906 224.765625 200.003906 224.765625 200 C 224.820312 199.914062 224.867188 199.824219 224.910156 199.738281 C 224.910156 199.734375 224.910156 199.730469 224.914062 199.730469 C 224.953125 199.644531 224.992188 199.554688 225.023438 199.457031 C 225.027344 199.457031 225.027344 199.449219 225.03125 199.445312 C 225.066406 199.355469 225.09375 199.265625 225.117188 199.171875 C 225.117188 199.160156 225.121094 199.152344 225.121094 199.144531 C 225.144531 199.054688 225.164062 198.960938 225.175781 198.871094 C 225.179688 198.859375 225.179688 198.84375 225.183594 198.835938 C 225.199219 198.742188 225.203125 198.648438 225.210938 198.554688 C 225.210938 198.542969 225.214844 198.53125 225.214844 198.519531 C 225.214844 198.472656 225.21875 198.421875 225.21875 198.378906 C 225.21875 198.328125 225.214844 198.273438 225.214844 198.226562 C 225.210938 198.21875 225.214844 198.21875 225.214844 198.214844 C 225.199219 197.910156 225.1875 197.613281 225.1875 197.3125 C 225.1875 188.925781 232.011719 182.101562 240.398438 182.101562 C 248.789062 182.101562 255.609375 188.925781 255.609375 197.3125 C 255.609375 203.449219 252.402344 208.566406 247.03125 211.003906 Z M 261.917969 197.3125 C 261.917969 185.445312 252.265625 175.789062 240.398438 175.789062 C 229.238281 175.789062 220.039062 184.335938 218.984375 195.222656 L 156.019531 195.222656 C 154.964844 184.335938 145.761719 175.789062 134.601562 175.789062 C 122.734375 175.789062 113.082031 185.445312 113.082031 197.3125 C 113.082031 203.976562 115.964844 209.972656 120.835938 213.933594 C 116.015625 217.972656 113.082031 224.019531 113.082031 230.445312 C 113.082031 242.3125 122.734375 251.964844 134.601562 251.964844 C 145.761719 251.964844 154.964844 243.425781 156.019531 232.535156 L 218.984375 232.535156 C 220.039062 243.425781 229.238281 251.964844 240.398438 251.964844 C 252.265625 251.964844 261.917969 242.3125 261.917969 230.445312 C 261.917969 224.023438 258.988281 217.980469 254.171875 213.933594 C 259.039062 209.988281 261.917969 203.992188 261.917969 197.3125 " fill-opacity="1" fill-rule="nonzero"/></svg>