<svg xmlns="http://www.w3.org/2000/svg" xmlns:xlink="http://www.w3.org/1999/xlink" width="500" zoomAndPan="magnify" viewBox="0 0 375 374.999991" height="500" preserveAspectRatio="xMidYMid meet" version="1.0"><defs><clipPath id="778254ce55"><path d="M 37.5 37.5 L 337 37.5 L 337 333.75 L 37.5 333.75 Z M 37.5 37.5 " clip-rule="nonzero"/></clipPath></defs><g clip-path="url(#778254ce55)"><path fill="#7c54d9" d="M 317.449219 281.511719 C 314.578125 278.832031 311.324219 276.917969 308.261719 275.195312 C 304.816406 273.28125 301.753906 271.558594 299.457031 268.878906 C 297.734375 266.964844 296.394531 264.667969 294.863281 262.179688 L 294.480469 261.605469 C 291.800781 257.207031 288.550781 251.464844 281.660156 248.402344 C 277.832031 246.679688 273.429688 245.914062 268.835938 246.105469 C 264.242188 245.914062 259.84375 246.871094 256.207031 248.785156 C 249.507812 252.039062 246.445312 257.78125 243.957031 262.371094 L 243.574219 262.945312 C 242.234375 265.433594 240.894531 267.730469 239.363281 269.835938 C 237.257812 272.515625 234.195312 274.429688 230.753906 276.34375 C 227.691406 278.257812 224.4375 280.171875 221.757812 283.042969 C 218.121094 286.679688 215.824219 292.035156 215.441406 297.777344 C 214.675781 306.773438 217.546875 315.578125 223.097656 321.507812 C 227.882812 326.675781 234.195312 329.355469 241.46875 329.355469 C 241.46875 329.355469 241.660156 329.355469 241.660156 329.355469 C 246.828125 329.355469 251.613281 328.207031 256.207031 327.058594 C 260.417969 326.101562 264.433594 324.953125 268.644531 324.953125 C 269.027344 324.953125 269.601562 324.953125 269.984375 324.953125 C 269.984375 324.953125 270.175781 324.953125 270.175781 324.953125 C 270.558594 324.953125 271.132812 324.953125 271.515625 324.953125 C 275.535156 324.761719 279.746094 325.71875 283.957031 326.675781 C 288.742188 327.632812 293.714844 328.78125 298.882812 328.589844 C 306.15625 328.398438 312.472656 325.335938 317.066406 320.167969 C 322.421875 314.046875 324.910156 305.050781 323.953125 296.054688 C 323.570312 290.3125 321.082031 285.148438 317.449219 281.511719 Z M 311.515625 315.195312 C 308.261719 318.828125 304.050781 320.742188 298.882812 320.933594 C 294.671875 321.125 290.464844 320.167969 285.871094 319.210938 C 281.277344 318.257812 276.683594 317.300781 271.707031 317.300781 C 271.132812 317.300781 270.75 317.300781 270.175781 317.300781 C 269.601562 317.300781 269.21875 317.300781 268.644531 317.300781 C 263.667969 317.492188 259.078125 318.449219 254.484375 319.59375 C 250.082031 320.742188 245.679688 321.699219 241.46875 321.699219 C 236.300781 321.699219 231.898438 319.785156 228.648438 316.34375 C 224.628906 311.941406 222.523438 305.242188 222.90625 298.351562 C 223.289062 294.332031 224.628906 290.886719 227.117188 288.402344 C 229.222656 286.296875 231.898438 284.765625 234.578125 283.042969 C 238.214844 280.746094 242.042969 278.449219 245.105469 274.8125 C 247.210938 272.324219 248.742188 269.453125 250.082031 266.964844 L 250.464844 266.390625 C 253.144531 261.605469 255.25 257.972656 259.460938 255.867188 C 261.945312 254.527344 264.816406 253.953125 267.878906 253.953125 C 268.070312 253.953125 268.453125 253.953125 268.644531 253.953125 C 268.835938 253.953125 268.835938 253.953125 269.027344 253.953125 C 272.28125 253.761719 275.535156 254.335938 278.214844 255.484375 C 282.425781 257.398438 284.722656 260.839844 287.59375 265.625 L 287.976562 266.199219 C 289.507812 268.878906 291.035156 271.558594 293.332031 273.855469 C 296.394531 277.492188 300.414062 279.597656 304.050781 281.894531 C 306.921875 283.617188 309.601562 285.148438 311.707031 287.0625 C 314.195312 289.355469 315.726562 292.800781 316.109375 296.820312 C 317.257812 303.710938 315.34375 310.601562 311.515625 315.195312 Z M 336.203125 245.914062 C 335.054688 238.257812 330.652344 231.367188 324.335938 226.777344 C 323.761719 226.394531 322.804688 225.820312 321.464844 225.4375 C 320.320312 225.246094 318.980469 225.4375 317.640625 226.011719 C 313.8125 227.542969 312.089844 231.175781 310.75 233.472656 L 304.816406 244.957031 C 303.476562 247.445312 302.136719 250.316406 301.5625 253.570312 C 300.605469 260.839844 305.390625 268.496094 312.664062 270.601562 C 312.855469 270.601562 313.046875 270.792969 313.238281 270.792969 C 314.769531 271.175781 316.109375 271.367188 317.640625 271.367188 C 322.804688 271.367188 327.972656 268.878906 331.609375 264.667969 C 335.820312 259.882812 337.351562 252.996094 336.203125 245.914062 Z M 325.867188 259.882812 C 323.1875 263.136719 318.789062 264.667969 315.152344 263.328125 C 314.960938 263.136719 314.578125 263.136719 314.386719 263.136719 C 311.132812 261.796875 308.835938 258.164062 309.410156 254.71875 C 309.601562 252.804688 310.75 250.699219 311.898438 248.59375 L 317.832031 237.109375 C 318.40625 235.960938 319.363281 234.238281 320.507812 233.472656 C 324.910156 236.726562 327.972656 241.894531 328.929688 247.253906 C 329.503906 252.039062 328.355469 256.632812 325.867188 259.882812 Z M 289.125 242.660156 C 289.316406 242.660156 289.699219 242.660156 289.890625 242.660156 C 290.082031 242.660156 290.464844 242.660156 290.652344 242.46875 C 298.5 242.085938 305.773438 236.726562 308.835938 228.691406 C 311.515625 221.609375 310.75 213.378906 306.730469 205.914062 C 302.328125 197.6875 294.863281 191.5625 285.871094 189.074219 C 284.914062 188.691406 283.765625 188.5 282.425781 188.691406 C 281.085938 188.882812 279.9375 189.457031 278.597656 190.605469 C 275.152344 193.667969 274.386719 198.453125 273.8125 201.511719 L 271.515625 217.015625 C 270.941406 220.269531 270.367188 224.097656 271.132812 227.925781 C 272.855469 236.34375 280.703125 242.660156 289.125 242.660156 Z M 279.171875 218.355469 L 281.46875 202.851562 C 281.851562 200.363281 282.234375 198.070312 283.574219 196.730469 C 290.464844 198.644531 296.394531 203.617188 299.839844 209.933594 C 302.710938 215.292969 303.285156 221.609375 301.5625 226.394531 C 299.648438 231.558594 294.671875 235.195312 289.890625 235.195312 C 289.890625 235.195312 289.699219 235.195312 289.699219 235.195312 C 289.316406 235.195312 289.125 235.195312 288.742188 235.386719 C 284.148438 235.195312 279.554688 231.558594 278.789062 226.96875 C 278.214844 224.097656 278.597656 221.035156 279.171875 218.355469 Z M 228.648438 236.152344 C 227.308594 233.855469 225.394531 230.410156 221.566406 228.882812 C 220.226562 228.308594 218.886719 228.308594 217.738281 228.5 C 216.398438 228.882812 215.441406 229.457031 214.867188 229.835938 C 208.742188 234.429688 204.53125 241.511719 203.574219 249.167969 C 202.617188 256.25 204.53125 262.945312 208.742188 267.730469 C 212.1875 271.75 217.355469 274.046875 222.332031 274.046875 C 224.054688 274.046875 225.585938 273.855469 227.308594 273.28125 C 227.5 273.28125 227.691406 273.28125 227.882812 273.089844 C 234.960938 270.792969 239.554688 262.945312 238.40625 255.675781 C 237.832031 252.421875 236.300781 249.742188 234.960938 247.253906 Z M 226.160156 265.625 C 225.96875 265.625 225.585938 265.816406 225.394531 265.816406 C 221.949219 267.15625 217.355469 265.816406 214.675781 262.753906 C 211.996094 259.691406 210.65625 255.101562 211.421875 250.125 C 212.1875 244.765625 215.058594 239.40625 219.460938 236.152344 C 220.609375 236.917969 221.566406 238.640625 222.140625 239.789062 L 228.457031 251.082031 C 229.605469 252.996094 230.753906 255.101562 231.136719 257.015625 C 231.519531 260.457031 229.414062 264.285156 226.160156 265.625 Z M 229.988281 230.027344 C 233.046875 237.875 240.320312 243.425781 248.167969 243.617188 C 248.359375 243.617188 248.550781 243.617188 248.933594 243.808594 C 249.125 243.808594 249.316406 243.808594 249.699219 243.808594 C 258.121094 243.808594 265.964844 237.300781 267.496094 229.074219 C 268.261719 225.246094 267.6875 221.417969 267.113281 218.164062 L 264.625 202.660156 C 264.050781 199.601562 263.476562 194.816406 259.84375 191.753906 C 258.695312 190.796875 257.355469 190.03125 256.015625 189.839844 C 254.484375 189.648438 253.144531 190.03125 252.570312 190.222656 C 243.765625 192.902344 236.109375 199.027344 231.898438 207.253906 C 227.882812 214.71875 227.117188 223.140625 229.988281 230.027344 Z M 238.597656 210.890625 C 241.851562 204.574219 247.976562 199.601562 254.675781 197.6875 C 255.824219 198.835938 256.398438 201.320312 256.78125 203.808594 L 259.269531 219.3125 C 259.652344 222.183594 260.226562 225.054688 259.652344 227.542969 C 258.886719 232.132812 254.292969 235.960938 249.699219 236.152344 C 249.507812 236.152344 249.125 235.960938 248.742188 235.960938 C 243.957031 236.152344 238.789062 232.324219 236.875 227.351562 C 235.152344 222.375 235.726562 216.25 238.597656 210.890625 Z M 123.960938 288.785156 L 149.796875 288.785156 C 151.902344 288.785156 153.625 287.0625 153.625 284.957031 L 153.625 249.742188 L 189.796875 249.742188 C 191.902344 249.742188 193.625 248.019531 193.625 245.914062 L 193.625 220.078125 C 193.625 217.972656 191.902344 216.25 189.796875 216.25 L 153.625 216.25 L 153.625 178.929688 C 153.625 176.824219 151.902344 175.101562 149.796875 175.101562 L 123.960938 175.101562 C 121.855469 175.101562 120.132812 176.824219 120.132812 178.929688 L 120.132812 216.25 L 83.960938 216.25 C 81.859375 216.25 80.136719 217.972656 80.136719 220.078125 L 80.136719 245.914062 C 80.136719 248.019531 81.859375 249.742188 83.960938 249.742188 L 120.132812 249.742188 L 120.132812 284.957031 C 120.132812 287.0625 121.855469 288.785156 123.960938 288.785156 Z M 87.789062 242.085938 L 87.789062 223.90625 L 123.960938 223.90625 C 126.066406 223.90625 127.789062 222.183594 127.789062 220.078125 L 127.789062 182.757812 L 145.96875 182.757812 L 145.96875 220.078125 C 145.96875 222.183594 147.691406 223.90625 149.796875 223.90625 L 185.96875 223.90625 L 185.96875 242.085938 L 149.796875 242.085938 C 147.691406 242.085938 145.96875 243.808594 145.96875 245.914062 L 145.96875 281.128906 L 127.789062 281.128906 L 127.789062 245.914062 C 127.789062 243.808594 126.066406 242.085938 123.960938 242.085938 Z M 208.359375 322.082031 C 200.515625 324.570312 192.285156 325.910156 184.054688 325.910156 L 88.9375 325.910156 C 77.457031 325.910156 65.78125 323.421875 55.253906 318.445312 L 54.300781 318.066406 C 48.941406 315.386719 45.304688 309.644531 45.304688 303.519531 L 45.304688 180.84375 C 45.304688 170.128906 50.089844 159.984375 58.699219 153.285156 C 60.804688 151.5625 62.71875 149.648438 64.441406 147.542969 L 119.175781 147.542969 C 121.28125 147.542969 123.003906 145.820312 123.003906 143.714844 C 123.003906 141.609375 121.28125 139.890625 119.175781 139.890625 L 69.226562 139.890625 C 70.375 137.402344 71.332031 134.722656 71.90625 132.042969 L 73.628906 123.8125 L 199.558594 123.8125 L 201.28125 132.042969 C 203.191406 140.464844 207.785156 148.117188 214.484375 153.476562 C 222.90625 160.175781 227.882812 170.320312 227.882812 181.035156 L 227.882812 187.734375 C 227.882812 189.839844 229.605469 191.5625 231.710938 191.5625 C 233.8125 191.5625 235.535156 189.839844 235.535156 187.734375 L 235.535156 181.035156 C 235.535156 167.832031 229.605469 155.582031 219.269531 147.542969 C 213.910156 143.332031 210.082031 137.210938 208.742188 130.511719 L 207.402344 124.003906 L 222.90625 124.003906 C 225.011719 124.003906 226.734375 122.28125 226.734375 120.175781 L 226.734375 51.472656 C 226.734375 43.816406 220.417969 37.5 212.761719 37.5 L 60.804688 37.5 C 53.152344 37.5 46.835938 43.816406 46.835938 51.472656 L 46.835938 119.984375 C 46.835938 122.089844 48.558594 123.8125 50.664062 123.8125 L 65.589844 123.8125 L 64.441406 130.320312 C 62.910156 137.019531 59.273438 143.140625 53.917969 147.351562 C 43.582031 155.582031 37.648438 167.832031 37.648438 180.84375 L 37.648438 303.519531 C 37.648438 312.707031 43.007812 321.125 51.238281 324.953125 L 52.195312 325.335938 C 63.675781 330.695312 76.308594 333.375 88.9375 333.375 L 184.054688 333.375 C 193.050781 333.375 202.046875 332.035156 210.65625 329.355469 C 212.761719 328.78125 213.71875 326.484375 213.144531 324.570312 C 212.570312 322.464844 210.464844 321.316406 208.359375 322.082031 Z M 54.679688 51.472656 C 54.679688 48.027344 57.550781 45.15625 60.996094 45.15625 L 212.953125 45.15625 C 216.398438 45.15625 219.269531 48.027344 219.269531 51.472656 L 219.269531 116.15625 L 195.921875 116.15625 L 195.921875 88.597656 C 195.921875 86.492188 194.199219 84.769531 192.09375 84.769531 C 189.988281 84.769531 188.265625 86.492188 188.265625 88.597656 L 188.265625 116.15625 L 168.171875 116.15625 L 168.171875 88.597656 C 168.171875 86.492188 166.449219 84.769531 164.34375 84.769531 C 162.238281 84.769531 160.515625 86.492188 160.515625 88.597656 L 160.515625 116.15625 L 140.613281 116.15625 L 140.613281 88.597656 C 140.613281 86.492188 138.890625 84.769531 136.785156 84.769531 C 134.679688 84.769531 132.957031 86.492188 132.957031 88.597656 L 132.957031 116.15625 L 113.054688 116.15625 L 113.054688 88.597656 C 113.054688 86.492188 111.332031 84.769531 109.226562 84.769531 C 107.121094 84.769531 105.398438 86.492188 105.398438 88.597656 L 105.398438 116.15625 L 85.683594 116.15625 L 85.683594 88.597656 C 85.683594 86.492188 83.960938 84.769531 81.859375 84.769531 C 79.753906 84.769531 78.03125 86.492188 78.03125 88.597656 L 78.03125 116.15625 L 54.679688 116.15625 Z M 54.679688 51.472656 " fill-opacity="1" fill-rule="nonzero"/></g></svg>