<svg xmlns="http://www.w3.org/2000/svg" xmlns:xlink="http://www.w3.org/1999/xlink" width="500" zoomAndPan="magnify" viewBox="0 0 375 374.999991" height="500" preserveAspectRatio="xMidYMid meet" version="1.0"><defs><clipPath id="6dec3b47e8"><path d="M 62.1875 166 L 312.285156 166 L 312.285156 328.855469 L 62.1875 328.855469 Z M 62.1875 166 " clip-rule="nonzero"/></clipPath><clipPath id="fed02f88e5"><path d="M 28.550781 46.105469 L 346.40625 46.105469 L 346.40625 192.714844 L 28.550781 192.714844 Z M 28.550781 46.105469 " clip-rule="nonzero"/></clipPath></defs><g clip-path="url(#6dec3b47e8)"><path fill="#7c54d9" d="M 307.230469 328.898438 L 67.796875 328.898438 C 65.054688 328.898438 62.828125 326.675781 62.828125 323.929688 L 62.828125 171.59375 C 62.828125 168.847656 65.054688 166.625 67.796875 166.625 C 70.539062 166.625 72.765625 168.847656 72.765625 171.59375 L 72.765625 318.964844 L 302.261719 318.964844 L 302.261719 171.59375 C 302.261719 168.847656 304.484375 166.625 307.230469 166.625 C 309.972656 166.625 312.195312 168.847656 312.195312 171.59375 L 312.195312 323.929688 C 312.195312 326.675781 309.972656 328.898438 307.230469 328.898438 " fill-opacity="1" fill-rule="evenodd"/></g><g clip-path="url(#fed02f88e5)"><path fill="#7c54d9" d="M 331.125 192.566406 C 327.707031 192.566406 324.410156 191.433594 321.683594 189.285156 L 187.511719 83.734375 L 53.34375 189.285156 C 46.703125 194.507812 37.054688 193.355469 31.832031 186.71875 C 29.304688 183.503906 28.179688 179.496094 28.664062 175.433594 C 29.148438 171.371094 31.1875 167.738281 34.398438 165.210938 L 184.441406 47.171875 C 186.246094 45.753906 188.78125 45.753906 190.585938 47.171875 L 340.625 165.210938 C 347.265625 170.429688 348.417969 180.082031 343.195312 186.71875 C 340.664062 189.9375 337.03125 191.976562 332.96875 192.457031 C 332.355469 192.53125 331.738281 192.566406 331.125 192.566406 Z M 187.511719 72.445312 C 188.597656 72.445312 189.683594 72.800781 190.585938 73.511719 L 327.824219 181.480469 C 328.957031 182.367188 330.367188 182.765625 331.792969 182.59375 C 333.21875 182.425781 334.496094 181.707031 335.386719 180.578125 C 337.222656 178.242188 336.8125 174.855469 334.484375 173.019531 L 187.511719 57.398438 L 40.546875 173.019531 C 39.414062 173.90625 38.699219 175.183594 38.527344 176.609375 C 38.355469 178.039062 38.753906 179.445312 39.640625 180.578125 C 41.476562 182.910156 44.867188 183.3125 47.199219 181.480469 L 184.441406 73.511719 C 185.34375 72.800781 186.425781 72.445312 187.511719 72.445312 " fill-opacity="1" fill-rule="evenodd"/></g><path fill="#7c54d9" d="M 281.585938 130.054688 C 278.839844 130.054688 276.617188 127.828125 276.617188 125.085938 L 276.617188 67.976562 L 251.988281 67.976562 L 251.988281 97.875 C 251.988281 100.617188 249.765625 102.839844 247.019531 102.839844 C 244.277344 102.839844 242.054688 100.617188 242.054688 97.875 L 242.054688 63.007812 C 242.054688 60.261719 244.277344 58.039062 247.019531 58.039062 L 281.585938 58.039062 C 284.328125 58.039062 286.550781 60.261719 286.550781 63.007812 L 286.550781 125.085938 C 286.550781 127.828125 284.328125 130.054688 281.585938 130.054688 " fill-opacity="1" fill-rule="evenodd"/><path fill="#7c54d9" d="M 187.511719 295.339844 C 186.816406 295.339844 186.125 295.195312 185.472656 294.902344 C 174.523438 289.972656 164.160156 282.871094 154.679688 273.796875 C 145.804688 265.296875 138.09375 255.46875 131.773438 244.589844 C 126.855469 236.128906 123.707031 228.394531 122.140625 220.945312 C 120.160156 211.515625 120.726562 202.351562 123.773438 194.453125 C 127.265625 185.429688 134.238281 177.792969 142.910156 173.496094 C 157.414062 166.316406 175.375 169.027344 187.511719 179.710938 C 199.652344 169.027344 217.613281 166.316406 232.113281 173.496094 C 240.789062 177.792969 247.761719 185.429688 251.25 194.453125 C 254.300781 202.351562 254.867188 211.511719 252.882812 220.945312 C 251.320312 228.394531 248.167969 236.128906 243.253906 244.589844 C 236.929688 255.46875 229.226562 265.296875 220.347656 273.796875 C 210.863281 282.871094 200.503906 289.972656 189.550781 294.902344 C 188.902344 295.195312 188.210938 295.339844 187.511719 295.339844 Z M 160.34375 179.398438 C 155.878906 179.398438 151.414062 180.371094 147.320312 182.402344 C 140.847656 185.605469 135.644531 191.300781 133.042969 198.035156 C 130.683594 204.136719 130.277344 211.351562 131.867188 218.902344 C 133.207031 225.300781 135.988281 232.066406 140.363281 239.597656 C 151.992188 259.609375 169.082031 276 187.511719 284.894531 C 205.941406 276 223.035156 259.609375 234.664062 239.597656 C 239.039062 232.070312 241.816406 225.300781 243.164062 218.902344 C 244.75 211.351562 244.34375 204.136719 241.984375 198.035156 C 239.382812 191.304688 234.179688 185.605469 227.707031 182.402344 C 215.613281 176.410156 200.285156 179.605469 191.265625 189.996094 C 190.320312 191.082031 188.953125 191.707031 187.511719 191.707031 C 186.074219 191.707031 184.707031 191.082031 183.761719 189.996094 C 177.796875 183.125 169.070312 179.398438 160.34375 179.398438 " fill-opacity="1" fill-rule="evenodd"/></svg>