<svg xmlns="http://www.w3.org/2000/svg" xmlns:xlink="http://www.w3.org/1999/xlink" width="683" zoomAndPan="magnify" viewBox="0 0 512.25 48" height="64" preserveAspectRatio="xMidYMid meet" version="1.0"><defs><clipPath id="7283257fc7"><path d="M 4.859375 3 L 506.65625 3 L 506.65625 47.019531 L 4.859375 47.019531 Z M 4.859375 3 " clip-rule="nonzero"/></clipPath><clipPath id="71ddd961ed"><path d="M 4.859375 14 L 506.65625 14 L 506.65625 47.019531 L 4.859375 47.019531 Z M 4.859375 14 " clip-rule="nonzero"/></clipPath></defs><g clip-path="url(#7283257fc7)"><path fill="#5e2cd3" d="M 531.832031 55.40625 C 511.429688 21.492188 470.765625 0 431.191406 3.414062 C 386.242188 7.261719 343.6875 31.585938 299.613281 38.195312 C 261.199219 43.933594 222.207031 41.101562 183.71875 37.542969 C 113.648438 31.007812 38.78125 20.476562 -27.007812 52.425781 C -80.742188 78.570312 -122.058594 130.125 -135.128906 188.578125 C -140.722656 213.703125 -141.230469 242.824219 -127.214844 265.476562 C -111.09375 291.621094 -81.179688 296.628906 -52.859375 292.707031 C -18.292969 287.988281 13.875 276.007812 49.308594 276.441406 C 86.707031 276.878906 123.378906 286.101562 159.03125 296.414062 C 224.238281 315.292969 291.261719 341.070312 360.390625 333.226562 C 418.992188 326.546875 473.304688 294.304688 509.105469 247.6875 C 549.695312 194.753906 568.066406 115.601562 531.832031 55.40625 Z M 531.832031 55.40625 " fill-opacity="1" fill-rule="nonzero"/></g><g clip-path="url(#71ddd961ed)"><path fill="#5e2cd3" d="M 543.589844 67.160156 C 523.183594 33.25 482.519531 11.753906 442.945312 15.167969 C 397.996094 19.015625 355.445312 43.34375 311.367188 49.949219 C 272.953125 55.6875 233.960938 52.855469 195.476562 49.296875 C 125.402344 42.761719 50.535156 32.230469 -15.253906 64.183594 C -68.988281 90.324219 -110.304688 141.878906 -123.375 200.335938 C -128.964844 225.460938 -129.476562 254.578125 -115.460938 277.234375 C -99.339844 303.375 -69.421875 308.386719 -41.101562 304.464844 C -6.539062 299.742188 25.628906 287.761719 61.066406 288.199219 C 98.460938 288.632812 135.132812 297.855469 170.785156 308.167969 C 235.992188 327.046875 303.015625 352.824219 372.144531 344.984375 C 430.746094 338.300781 485.0625 306.0625 520.859375 259.441406 C 561.453125 206.507812 579.824219 127.355469 543.589844 67.160156 Z M 543.589844 67.160156 " fill-opacity="1" fill-rule="nonzero"/></g></svg>