<svg xmlns="http://www.w3.org/2000/svg" xmlns:xlink="http://www.w3.org/1999/xlink" width="683" zoomAndPan="magnify" viewBox="0 0 512.25 48" height="64" preserveAspectRatio="xMidYMid meet" version="1.0"><defs><clipPath id="b721510497"><path d="M 4.859375 0 L 506.65625 0 L 506.65625 44 L 4.859375 44 Z M 4.859375 0 " clip-rule="nonzero"/></clipPath></defs><g clip-path="url(#b721510497)"><path fill="#5e2cd3" d="M -24.277344 -8.390625 C -3.871094 25.523438 36.792969 47.015625 76.367188 43.601562 C 121.316406 39.753906 163.867188 15.429688 207.945312 8.820312 C 246.355469 3.082031 285.351562 5.914062 323.835938 9.472656 C 393.910156 16.007812 468.773438 26.539062 534.5625 -5.410156 C 588.296875 -31.554688 629.617188 -83.109375 642.6875 -141.5625 C 648.277344 -166.6875 648.785156 -195.808594 634.769531 -218.460938 C 618.652344 -244.605469 588.734375 -249.613281 560.414062 -245.691406 C 525.851562 -240.972656 493.679688 -228.992188 458.246094 -229.425781 C 420.847656 -229.863281 384.179688 -239.085938 348.523438 -249.398438 C 283.316406 -268.277344 216.292969 -294.054688 147.164062 -286.210938 C 88.566406 -279.53125 34.25 -247.289062 -1.550781 -200.671875 C -42.140625 -147.734375 -60.511719 -68.585938 -24.277344 -8.390625 Z M -24.277344 -8.390625 " fill-opacity="1" fill-rule="nonzero"/><path fill="#5e2cd3" d="M -24.277344 -8.390625 C -3.871094 25.523438 36.792969 47.015625 76.367188 43.601562 C 121.316406 39.753906 163.867188 15.429688 207.945312 8.820312 C 246.355469 3.082031 285.351562 5.914062 323.835938 9.472656 C 393.910156 16.007812 468.773438 26.539062 534.5625 -5.410156 C 588.296875 -31.554688 629.617188 -83.109375 642.6875 -141.5625 C 648.277344 -166.6875 648.785156 -195.808594 634.769531 -218.460938 C 618.652344 -244.605469 588.734375 -249.613281 560.414062 -245.691406 C 525.851562 -240.972656 493.679688 -228.992188 458.246094 -229.425781 C 420.847656 -229.863281 384.179688 -239.085938 348.523438 -249.398438 C 283.316406 -268.277344 216.292969 -294.054688 147.164062 -286.210938 C 88.566406 -279.53125 34.25 -247.289062 -1.550781 -200.671875 C -42.140625 -147.734375 -60.511719 -68.585938 -24.277344 -8.390625 Z M -24.277344 -8.390625 " fill-opacity="1" fill-rule="nonzero"/></g></svg>