<svg xmlns="http://www.w3.org/2000/svg" xmlns:xlink="http://www.w3.org/1999/xlink" width="500" zoomAndPan="magnify" viewBox="0 0 375 374.999991" height="500" preserveAspectRatio="xMidYMid meet" version="1.0"><defs><g/><clipPath id="b631205cdf"><path d="M 122.902344 36.351562 L 282.113281 36.351562 L 282.113281 250.464844 L 122.902344 250.464844 Z M 122.902344 36.351562 " clip-rule="nonzero"/></clipPath><clipPath id="938696d13e"><path d="M 91.792969 19.1875 L 282.996094 19.1875 L 282.996094 176.035156 L 91.792969 176.035156 Z M 91.792969 19.1875 " clip-rule="nonzero"/></clipPath></defs><g clip-path="url(#b631205cdf)"><path fill="#2f343d" d="M 150.152344 202.113281 L 187.496094 239.445312 L 247.007812 179.933594 L 246.875 179.800781 L 249.640625 177.035156 C 261.875 164.804688 270.121094 149.503906 273.574219 132.667969 C 265.777344 126 235.042969 98.675781 218.269531 68.445312 L 217.976562 67.914062 L 217.855469 67.320312 C 216.15625 58.898438 211.335938 52.542969 207.925781 48.929688 L 198.152344 70.242188 L 178.597656 70.242188 C 175.9375 70.242188 173.394531 71.375 171.617188 73.351562 L 171.464844 73.523438 L 163.261719 80.730469 C 160.011719 84.242188 155.425781 86.25 150.640625 86.25 C 150.625 86.25 150.613281 86.25 150.601562 86.25 C 145.347656 86.238281 136.804688 86.226562 130.921875 86.242188 C 131.394531 92.109375 133.042969 96.4375 135.613281 98.378906 L 136.992188 99.425781 L 137.148438 101.152344 C 137.53125 105.453125 138.699219 118.535156 164.613281 118.574219 L 167.011719 118.429688 C 169.222656 114.414062 174.683594 105.613281 182.683594 100.238281 L 185.484375 98.359375 L 187.753906 100.847656 C 194.886719 108.667969 197.882812 116.972656 198.976562 120.84375 C 203.082031 122.457031 209.609375 125.25 211.886719 127.527344 C 213.449219 129.089844 214.636719 131.40625 216.015625 134.085938 C 217.296875 136.578125 218.742188 139.390625 220.6875 142.027344 C 222.949219 143.925781 223.925781 144.722656 226.574219 146.804688 L 228.066406 147.976562 L 228.066406 149.878906 C 228.066406 163.707031 216.816406 174.960938 202.988281 174.960938 C 197.453125 174.960938 192.203125 173.191406 187.808594 169.84375 L 192.542969 163.621094 C 195.566406 165.921875 199.179688 167.140625 202.988281 167.140625 C 211.890625 167.140625 219.242188 160.363281 220.152344 151.699219 C 218.425781 150.328125 217.355469 149.441406 215.316406 147.730469 L 214.976562 147.449219 L 214.710938 147.097656 C 212.222656 143.816406 210.46875 140.402344 209.058594 137.660156 C 208.074219 135.738281 207.050781 133.753906 206.355469 133.058594 C 205.230469 131.980469 199.097656 129.222656 194.296875 127.425781 L 192.222656 126.648438 L 191.824219 124.46875 C 191.808594 124.394531 190.292969 116.71875 184.269531 108.859375 C 177.28125 114.90625 173.042969 123.773438 172.996094 123.871094 L 172.375 125.183594 L 171.050781 125.773438 C 163.765625 129.023438 157.167969 133.570312 151.449219 139.292969 C 139.480469 151.257812 132.726562 167.050781 132.332031 183.914062 Z M 187.496094 250.503906 L 144.578125 207.597656 L 124.492188 187.085938 L 124.492188 185.492188 C 124.492188 165.949219 132.101562 147.578125 145.917969 133.761719 C 148.855469 130.824219 152 128.164062 155.332031 125.792969 C 136.726562 123.222656 130.867188 112.859375 129.542969 103.457031 C 125.183594 99.246094 122.917969 91.996094 122.960938 82.335938 L 122.980469 78.480469 L 126.835938 78.445312 C 132.003906 78.398438 143.957031 78.414062 150.617188 78.429688 C 150.625 78.429688 150.632812 78.429688 150.640625 78.429688 C 153.292969 78.429688 155.832031 77.296875 157.609375 75.320312 L 157.765625 75.148438 L 165.96875 67.941406 C 169.21875 64.433594 173.804688 62.421875 178.597656 62.421875 L 193.132812 62.421875 L 205.070312 36.394531 L 208.941406 39.265625 C 209.476562 39.660156 221.875 49.011719 225.394531 65.160156 C 243.660156 97.722656 279.96875 127.835938 280.335938 128.136719 L 282.101562 129.589844 L 281.699219 131.84375 C 278.472656 149.84375 270.265625 166.324219 257.878906 179.746094 L 258.066406 179.933594 L 187.496094 250.503906 " fill-opacity="1" fill-rule="nonzero"/></g><path fill="#5e2cd3" d="M 140.855469 178.238281 L 171.761719 177.492188 L 187.402344 196.113281 L 263 149.5625 L 187.402344 224.789062 L 140.855469 178.238281 " fill-opacity="1" fill-rule="nonzero"/><g clip-path="url(#938696d13e)"><path fill="#5e2cd3" d="M 113.84375 176.007812 C 114.238281 172.476562 114.851562 168.996094 115.675781 165.578125 C 91.019531 130.839844 94.734375 83.363281 125.351562 52.75 C 159.617188 18.480469 215.375 18.480469 249.640625 52.75 C 264.765625 67.875 273.648438 87.382812 275.152344 108.410156 C 278.332031 111.449219 281.09375 113.964844 283.191406 115.828125 C 283.316406 103.527344 281.125 91.5 276.664062 80.058594 C 271.847656 67.710938 264.617188 56.664062 255.171875 47.21875 C 237.09375 29.140625 213.0625 19.1875 187.496094 19.1875 C 161.933594 19.1875 137.898438 29.140625 119.824219 47.21875 C 102.921875 64.121094 93 86.570312 91.894531 110.429688 C 90.796875 134.132812 98.441406 157.242188 113.429688 175.511719 C 113.566406 175.675781 113.707031 175.839844 113.84375 176.007812 " fill-opacity="1" fill-rule="nonzero"/></g><g fill="#5e2cd3" fill-opacity="1"><g transform="translate(33.033519, 313.374848)"><g><path d="M 30.734375 -8.46875 L 12.375 -8.46875 L 8.875 0 L -0.515625 0 L 17.109375 -39.546875 L 26.15625 -39.546875 L 43.828125 0 L 34.234375 0 Z M 27.84375 -15.421875 L 21.578125 -30.5625 L 15.3125 -15.421875 Z M 27.84375 -15.421875 "/></g></g></g><g fill="#5e2cd3" fill-opacity="1"><g transform="translate(76.295694, 313.374848)"><g><path d="M 22.53125 -30.84375 C 26.300781 -30.84375 29.34375 -29.710938 31.65625 -27.453125 C 33.976562 -25.191406 35.140625 -21.835938 35.140625 -17.390625 L 35.140625 0 L 26.328125 0 L 26.328125 -16.046875 C 26.328125 -18.453125 25.796875 -20.25 24.734375 -21.4375 C 23.679688 -22.625 22.160156 -23.21875 20.171875 -23.21875 C 17.941406 -23.21875 16.164062 -22.53125 14.84375 -21.15625 C 13.53125 -19.78125 12.875 -17.738281 12.875 -15.03125 L 12.875 0 L 4.0625 0 L 4.0625 -30.390625 L 12.484375 -30.390625 L 12.484375 -26.828125 C 13.648438 -28.109375 15.097656 -29.097656 16.828125 -29.796875 C 18.566406 -30.492188 20.46875 -30.84375 22.53125 -30.84375 Z M 22.53125 -30.84375 "/></g></g></g><g fill="#5e2cd3" fill-opacity="1"><g transform="translate(115.322023, 313.374848)"><g><path d="M 14.296875 0.453125 C 11.765625 0.453125 9.296875 0.144531 6.890625 -0.46875 C 4.484375 -1.09375 2.5625 -1.878906 1.125 -2.828125 L 4.0625 -9.15625 C 5.414062 -8.28125 7.050781 -7.570312 8.96875 -7.03125 C 10.894531 -6.488281 12.78125 -6.21875 14.625 -6.21875 C 18.351562 -6.21875 20.21875 -7.140625 20.21875 -8.984375 C 20.21875 -9.847656 19.707031 -10.46875 18.6875 -10.84375 C 17.675781 -11.21875 16.117188 -11.539062 14.015625 -11.8125 C 11.523438 -12.1875 9.46875 -12.617188 7.84375 -13.109375 C 6.226562 -13.597656 4.828125 -14.460938 3.640625 -15.703125 C 2.453125 -16.941406 1.859375 -18.710938 1.859375 -21.015625 C 1.859375 -22.929688 2.414062 -24.632812 3.53125 -26.125 C 4.644531 -27.613281 6.265625 -28.769531 8.390625 -29.59375 C 10.515625 -30.425781 13.023438 -30.84375 15.921875 -30.84375 C 18.066406 -30.84375 20.203125 -30.601562 22.328125 -30.125 C 24.460938 -29.65625 26.226562 -29.007812 27.625 -28.1875 L 24.6875 -21.921875 C 22.007812 -23.421875 19.085938 -24.171875 15.921875 -24.171875 C 14.046875 -24.171875 12.632812 -23.90625 11.6875 -23.375 C 10.75 -22.851562 10.28125 -22.175781 10.28125 -21.34375 C 10.28125 -20.40625 10.785156 -19.75 11.796875 -19.375 C 12.816406 -19 14.4375 -18.640625 16.65625 -18.296875 C 19.144531 -17.878906 21.179688 -17.4375 22.765625 -16.96875 C 24.347656 -16.5 25.722656 -15.644531 26.890625 -14.40625 C 28.054688 -13.164062 28.640625 -11.429688 28.640625 -9.203125 C 28.640625 -7.316406 28.070312 -5.640625 26.9375 -4.171875 C 25.8125 -2.710938 24.164062 -1.578125 22 -0.765625 C 19.832031 0.046875 17.265625 0.453125 14.296875 0.453125 Z M 14.296875 0.453125 "/></g></g></g><g fill="#5e2cd3" fill-opacity="1"><g transform="translate(145.311873, 313.374848)"><g><path d="M 22.53125 -30.84375 C 26.300781 -30.84375 29.34375 -29.710938 31.65625 -27.453125 C 33.976562 -25.191406 35.140625 -21.835938 35.140625 -17.390625 L 35.140625 0 L 26.328125 0 L 26.328125 -16.046875 C 26.328125 -18.453125 25.796875 -20.25 24.734375 -21.4375 C 23.679688 -22.625 22.160156 -23.21875 20.171875 -23.21875 C 17.941406 -23.21875 16.164062 -22.53125 14.84375 -21.15625 C 13.53125 -19.78125 12.875 -17.738281 12.875 -15.03125 L 12.875 0 L 4.0625 0 L 4.0625 -41.90625 L 12.875 -41.90625 L 12.875 -27.21875 C 14.039062 -28.382812 15.453125 -29.28125 17.109375 -29.90625 C 18.765625 -30.53125 20.570312 -30.84375 22.53125 -30.84375 Z M 22.53125 -30.84375 "/></g></g></g><g fill="#5e2cd3" fill-opacity="1"><g transform="translate(184.338203, 313.374848)"><g><path d="M 4.0625 -30.390625 L 12.875 -30.390625 L 12.875 0 L 4.0625 0 Z M 8.46875 -34.625 C 6.851562 -34.625 5.535156 -35.09375 4.515625 -36.03125 C 3.503906 -36.976562 3 -38.148438 3 -39.546875 C 3 -40.929688 3.503906 -42.09375 4.515625 -43.03125 C 5.535156 -43.976562 6.851562 -44.453125 8.46875 -44.453125 C 10.09375 -44.453125 11.410156 -44 12.421875 -43.09375 C 13.441406 -42.1875 13.953125 -41.054688 13.953125 -39.703125 C 13.953125 -38.234375 13.441406 -37.019531 12.421875 -36.0625 C 11.410156 -35.101562 10.09375 -34.625 8.46875 -34.625 Z M 8.46875 -34.625 "/></g></g></g><g fill="#5e2cd3" fill-opacity="1"><g transform="translate(201.338087, 313.374848)"><g><path d="M 22.53125 -30.84375 C 26.300781 -30.84375 29.34375 -29.710938 31.65625 -27.453125 C 33.976562 -25.191406 35.140625 -21.835938 35.140625 -17.390625 L 35.140625 0 L 26.328125 0 L 26.328125 -16.046875 C 26.328125 -18.453125 25.796875 -20.25 24.734375 -21.4375 C 23.679688 -22.625 22.160156 -23.21875 20.171875 -23.21875 C 17.941406 -23.21875 16.164062 -22.53125 14.84375 -21.15625 C 13.53125 -19.78125 12.875 -17.738281 12.875 -15.03125 L 12.875 0 L 4.0625 0 L 4.0625 -30.390625 L 12.484375 -30.390625 L 12.484375 -26.828125 C 13.648438 -28.109375 15.097656 -29.097656 16.828125 -29.796875 C 18.566406 -30.492188 20.46875 -30.84375 22.53125 -30.84375 Z M 22.53125 -30.84375 "/></g></g></g><g fill="#2f343d" fill-opacity="1"><g transform="translate(240.376265, 313.374848)"><g><path d="M 21.796875 -39.546875 C 25.304688 -39.546875 28.347656 -38.957031 30.921875 -37.78125 C 33.503906 -36.613281 35.488281 -34.957031 36.875 -32.8125 C 38.269531 -30.664062 38.96875 -28.125 38.96875 -25.1875 C 38.96875 -22.289062 38.269531 -19.757812 36.875 -17.59375 C 35.488281 -15.425781 33.503906 -13.769531 30.921875 -12.625 C 28.347656 -11.476562 25.304688 -10.90625 21.796875 -10.90625 L 13.84375 -10.90625 L 13.84375 0 L 4.6875 0 L 4.6875 -39.546875 Z M 21.296875 -18.359375 C 24.046875 -18.359375 26.132812 -18.953125 27.5625 -20.140625 C 28.988281 -21.328125 29.703125 -23.007812 29.703125 -25.1875 C 29.703125 -27.414062 28.988281 -29.117188 27.5625 -30.296875 C 26.132812 -31.484375 24.046875 -32.078125 21.296875 -32.078125 L 13.84375 -32.078125 L 13.84375 -18.359375 Z M 21.296875 -18.359375 "/></g></g></g><g fill="#2f343d" fill-opacity="1"><g transform="translate(281.718187, 313.374848)"><g><path d="M 33.828125 -15.078125 C 33.828125 -14.960938 33.773438 -14.171875 33.671875 -12.703125 L 10.671875 -12.703125 C 11.085938 -10.828125 12.066406 -9.34375 13.609375 -8.25 C 15.148438 -7.15625 17.070312 -6.609375 19.375 -6.609375 C 20.957031 -6.609375 22.359375 -6.84375 23.578125 -7.3125 C 24.804688 -7.78125 25.945312 -8.523438 27 -9.546875 L 31.6875 -4.46875 C 28.820312 -1.1875 24.640625 0.453125 19.140625 0.453125 C 15.722656 0.453125 12.691406 -0.210938 10.046875 -1.546875 C 7.410156 -2.890625 5.378906 -4.742188 3.953125 -7.109375 C 2.523438 -9.484375 1.8125 -12.175781 1.8125 -15.1875 C 1.8125 -18.164062 2.515625 -20.847656 3.921875 -23.234375 C 5.335938 -25.628906 7.273438 -27.492188 9.734375 -28.828125 C 12.203125 -30.171875 14.960938 -30.84375 18.015625 -30.84375 C 20.992188 -30.84375 23.6875 -30.203125 26.09375 -28.921875 C 28.5 -27.640625 30.390625 -25.800781 31.765625 -23.40625 C 33.140625 -21.019531 33.828125 -18.242188 33.828125 -15.078125 Z M 18.078125 -24.171875 C 16.078125 -24.171875 14.398438 -23.601562 13.046875 -22.46875 C 11.691406 -21.34375 10.863281 -19.800781 10.5625 -17.84375 L 25.53125 -17.84375 C 25.226562 -19.769531 24.398438 -21.304688 23.046875 -22.453125 C 21.691406 -23.597656 20.035156 -24.171875 18.078125 -24.171875 Z M 18.078125 -24.171875 "/></g></g></g><g fill="#2f343d" fill-opacity="1"><g transform="translate(317.355831, 313.374848)"><g><path d="M 23.671875 -1.46875 C 22.804688 -0.832031 21.738281 -0.351562 20.46875 -0.03125 C 19.207031 0.289062 17.882812 0.453125 16.5 0.453125 C 12.882812 0.453125 10.085938 -0.46875 8.109375 -2.3125 C 6.128906 -4.15625 5.140625 -6.867188 5.140625 -10.453125 L 5.140625 -22.9375 L 0.453125 -22.9375 L 0.453125 -29.703125 L 5.140625 -29.703125 L 5.140625 -37.109375 L 13.953125 -37.109375 L 13.953125 -29.703125 L 21.515625 -29.703125 L 21.515625 -22.9375 L 13.953125 -22.9375 L 13.953125 -10.5625 C 13.953125 -9.28125 14.28125 -8.289062 14.9375 -7.59375 C 15.59375 -6.894531 16.523438 -6.546875 17.734375 -6.546875 C 19.128906 -6.546875 20.316406 -6.925781 21.296875 -7.6875 Z M 23.671875 -1.46875 "/></g></g></g><g fill="#5e2cd3" fill-opacity="1"><g transform="translate(123.965691, 350.089462)"><g><path d="M 3.890625 -14.9375 L 18.9375 -14.9375 L 18.9375 -11.9375 L 20.703125 -11.9375 L 20.703125 -16.515625 L 12.578125 -16.515625 C 12.234375 -17.296875 11.703125 -18.34375 11.25 -19.203125 L 9.5 -18.78125 C 9.84375 -18.09375 10.265625 -17.21875 10.578125 -16.515625 L 2.203125 -16.515625 L 2.203125 -11.9375 L 3.890625 -11.9375 Z M 15.03125 -8.65625 C 14.34375 -6.828125 13.3125 -5.3125 12.03125 -4.09375 C 10.375 -4.734375 8.6875 -5.359375 7.09375 -5.859375 C 7.671875 -6.6875 8.296875 -7.65625 8.90625 -8.65625 Z M 21.328125 -8.65625 L 21.328125 -10.28125 L 9.84375 -10.28125 C 10.46875 -11.40625 11.046875 -12.546875 11.5 -13.578125 L 9.671875 -13.96875 C 9.203125 -12.828125 8.546875 -11.546875 7.859375 -10.28125 L 1.625 -10.28125 L 1.625 -8.65625 L 6.890625 -8.65625 C 6.0625 -7.328125 5.21875 -6.09375 4.46875 -5.125 L 4.4375 -5.109375 C 6.34375 -4.515625 8.421875 -3.734375 10.484375 -2.90625 C 8.265625 -1.390625 5.40625 -0.453125 1.953125 0.140625 C 2.3125 0.53125 2.84375 1.265625 3.03125 1.6875 C 6.75 0.875 9.828125 -0.28125 12.25 -2.15625 C 15.140625 -0.890625 17.78125 0.453125 19.453125 1.609375 L 20.84375 0.140625 C 19.109375 -0.984375 16.515625 -2.25 13.703125 -3.4375 C 15.078125 -4.8125 16.171875 -6.53125 16.96875 -8.65625 Z M 21.328125 -8.65625 "/></g></g></g><g fill="#5e2cd3" fill-opacity="1"><g transform="translate(150.001768, 350.089462)"><g><path d="M 7.875 -17.25 C 10.03125 -15.71875 12.6875 -13.46875 13.953125 -12.046875 L 15.15625 -13.3125 C 13.859375 -14.75 11.125 -16.90625 9 -18.375 Z M 17.390625 -11.09375 C 18.671875 -8.40625 19.90625 -4.8125 20.359375 -2.453125 L 22.03125 -3.109375 C 21.5625 -5.46875 20.296875 -8.984375 18.96875 -11.703125 Z M 3.15625 -11.109375 C 2.84375 -8.421875 2.078125 -4.859375 1.09375 -2.515625 L 2.796875 -1.8125 C 3.734375 -4.234375 4.4375 -8.109375 4.8125 -10.78125 Z M 6.796875 -12.828125 L 6.796875 -1.5625 C 6.796875 0.703125 7.484375 1.328125 9.96875 1.328125 L 14.5625 1.328125 C 17.109375 1.328125 17.640625 0.0625 17.890625 -4.265625 C 17.40625 -4.390625 16.703125 -4.703125 16.28125 -5.015625 C 16.109375 -1.078125 15.890625 -0.28125 14.484375 -0.28125 L 10.109375 -0.28125 C 8.796875 -0.28125 8.515625 -0.484375 8.515625 -1.53125 L 8.515625 -12.828125 Z M 6.796875 -12.828125 "/></g></g></g><g fill="#2f343d" fill-opacity="1"><g transform="translate(176.042889, 350.089462)"><g><path d="M 16.125 -13.75 C 16.125 -14.6875 16.875 -15.421875 17.828125 -15.421875 C 18.734375 -15.421875 19.5 -14.6875 19.5 -13.75 C 19.5 -12.828125 18.734375 -12.078125 17.828125 -12.078125 C 16.875 -12.078125 16.125 -12.828125 16.125 -13.75 Z M 15.03125 -13.75 C 15.03125 -12.203125 16.265625 -10.96875 17.828125 -10.96875 C 19.359375 -10.96875 20.59375 -12.203125 20.59375 -13.75 C 20.59375 -15.28125 19.359375 -16.53125 17.828125 -16.53125 C 16.265625 -16.53125 15.03125 -15.28125 15.03125 -13.75 Z M 1.234375 -6.03125 L 2.90625 -4.328125 C 3.25 -4.78125 3.75 -5.5 4.234375 -6.09375 C 5.265625 -7.359375 7.1875 -9.875 8.296875 -11.203125 C 9.078125 -12.15625 9.390625 -12.1875 10.359375 -11.390625 C 11.34375 -10.5625 13.234375 -8.5 14.828125 -6.734375 C 16.28125 -5.0625 18.375 -2.703125 19.96875 -0.640625 L 21.46875 -2.265625 C 19.796875 -4.234375 17.453125 -6.734375 15.921875 -8.390625 C 14.453125 -9.96875 12.578125 -11.984375 11.171875 -13.125 C 9.53125 -14.5 8.59375 -14.34375 7.375 -12.890625 C 5.9375 -11.203125 3.9375 -8.65625 2.84375 -7.53125 C 2.25 -6.9375 1.8125 -6.53125 1.234375 -6.03125 Z M 1.234375 -6.03125 "/></g></g></g><g fill="#2f343d" fill-opacity="1"><g transform="translate(202.078966, 350.089462)"><g><path d="M 11.0625 -13.1875 L 9.390625 -12.625 C 9.875 -11.59375 10.921875 -8.6875 11.171875 -7.65625 L 12.875 -8.25 C 12.578125 -9.25 11.453125 -12.28125 11.0625 -13.1875 Z M 17.390625 -12.53125 C 17.046875 -9.59375 15.84375 -6.6875 14.21875 -4.703125 C 12.34375 -2.34375 9.4375 -0.59375 6.78125 0.15625 L 8.296875 1.71875 C 10.859375 0.734375 13.65625 -1.046875 15.765625 -3.734375 C 17.40625 -5.796875 18.390625 -8.25 19.015625 -10.765625 C 19.109375 -11.0625 19.203125 -11.4375 19.359375 -11.90625 Z M 5.75 -12.046875 L 4.046875 -11.390625 C 4.515625 -10.578125 5.75 -7.421875 6.09375 -6.234375 L 7.828125 -6.875 C 7.40625 -8.0625 6.203125 -11.0625 5.75 -12.046875 Z M 5.75 -12.046875 "/></g></g></g><g fill="#2f343d" fill-opacity="1"><g transform="translate(228.115043, 350.089462)"><g><path d="M 19.40625 -7.828125 C 16.96875 -9.046875 12.640625 -10.703125 9.625 -11.609375 L 9.625 -15.34375 C 9.625 -16.03125 9.71875 -17.015625 9.78125 -17.734375 L 7.53125 -17.734375 C 7.671875 -17.015625 7.71875 -15.984375 7.71875 -15.34375 L 7.71875 -2.015625 C 7.71875 -1.171875 7.671875 -0.046875 7.578125 0.6875 L 9.78125 0.6875 C 9.6875 -0.0625 9.640625 -1.28125 9.640625 -2.015625 L 9.625 -9.578125 C 12.15625 -8.765625 16.125 -7.234375 18.625 -5.890625 Z M 19.40625 -7.828125 "/></g></g></g></svg>