<svg xmlns="http://www.w3.org/2000/svg" xmlns:xlink="http://www.w3.org/1999/xlink" width="500" zoomAndPan="magnify" viewBox="0 0 375 374.999991" height="500" preserveAspectRatio="xMidYMid meet" version="1.0"><defs><clipPath id="f63b7dc0f1"><path d="M 88.839844 37.058594 L 332.027344 37.058594 L 332.027344 364.089844 L 88.839844 364.089844 Z M 88.839844 37.058594 " clip-rule="nonzero"/></clipPath><clipPath id="8e88b4a259"><path d="M 41.320312 10.839844 L 333.679688 10.839844 L 333.679688 250.421875 L 41.320312 250.421875 Z M 41.320312 10.839844 " clip-rule="nonzero"/></clipPath></defs><g clip-path="url(#f63b7dc0f1)"><path fill="#2f343d" d="M 130.464844 290.253906 L 187.503906 347.273438 L 278.40625 256.371094 L 278.203125 256.171875 L 282.425781 251.945312 C 301.113281 233.261719 313.707031 209.890625 318.988281 184.175781 C 307.074219 173.992188 260.128906 132.257812 234.507812 86.078125 L 234.058594 85.269531 L 233.878906 84.359375 C 231.28125 71.496094 223.921875 61.785156 218.707031 56.269531 L 203.777344 88.824219 L 173.910156 88.824219 C 169.851562 88.824219 165.964844 90.554688 163.25 93.574219 L 163.015625 93.835938 L 150.484375 104.84375 C 145.519531 110.210938 138.519531 113.273438 131.207031 113.273438 C 131.1875 113.273438 131.167969 113.273438 131.148438 113.273438 C 123.125 113.257812 110.074219 113.238281 101.089844 113.265625 C 101.808594 122.222656 104.328125 128.832031 108.253906 131.800781 L 110.363281 133.398438 L 110.597656 136.035156 C 111.1875 142.609375 112.96875 162.589844 152.550781 162.648438 L 156.21875 162.429688 C 159.589844 156.292969 167.933594 142.851562 180.15625 134.640625 L 184.429688 131.769531 L 187.898438 135.574219 C 198.789062 147.515625 203.371094 160.199219 205.039062 166.117188 C 211.3125 168.578125 221.285156 172.847656 224.757812 176.324219 C 227.148438 178.710938 228.960938 182.246094 231.066406 186.34375 C 233.023438 190.148438 235.230469 194.445312 238.203125 198.476562 C 241.65625 201.367188 243.152344 202.589844 247.195312 205.769531 L 249.476562 207.5625 L 249.476562 210.464844 C 249.476562 231.589844 232.289062 248.773438 211.167969 248.773438 C 202.710938 248.773438 194.691406 246.070312 187.980469 240.960938 L 195.214844 231.457031 C 199.832031 234.972656 205.347656 236.828125 211.167969 236.828125 C 224.765625 236.828125 235.992188 226.480469 237.386719 213.246094 C 234.75 211.152344 233.113281 209.796875 229.996094 207.183594 L 229.480469 206.75 L 229.074219 206.21875 C 225.273438 201.203125 222.59375 195.988281 220.441406 191.800781 C 218.933594 188.867188 217.375 185.832031 216.3125 184.769531 C 214.59375 183.128906 205.222656 178.914062 197.890625 176.167969 L 194.722656 174.980469 L 194.113281 171.652344 C 194.089844 171.539062 191.773438 159.8125 182.574219 147.8125 C 171.898438 157.042969 165.425781 170.585938 165.355469 170.738281 L 164.410156 172.742188 L 162.386719 173.644531 C 151.253906 178.609375 141.179688 185.554688 132.441406 194.292969 C 114.160156 212.574219 103.847656 236.695312 103.242188 262.453125 Z M 187.507812 364.164062 L 121.949219 298.628906 L 91.269531 267.296875 L 91.269531 264.859375 C 91.269531 235.011719 102.890625 206.953125 123.996094 185.847656 C 128.480469 181.359375 133.285156 177.296875 138.375 173.671875 C 109.953125 169.746094 101.003906 153.917969 98.984375 139.558594 C 92.324219 133.125 88.859375 122.050781 88.929688 107.296875 L 88.957031 101.410156 L 94.847656 101.355469 C 102.742188 101.28125 120.996094 101.308594 131.175781 101.328125 C 131.183594 101.328125 131.195312 101.328125 131.207031 101.328125 C 135.261719 101.328125 139.140625 99.601562 141.855469 96.582031 L 142.089844 96.320312 L 154.621094 85.3125 C 159.585938 79.949219 166.59375 76.878906 173.910156 76.878906 L 196.113281 76.878906 L 214.347656 37.121094 L 220.261719 41.507812 C 221.078125 42.109375 240.015625 56.390625 245.390625 81.0625 C 273.292969 130.796875 328.75 176.792969 329.308594 177.253906 L 332.007812 179.476562 L 331.390625 182.917969 C 326.46875 210.414062 313.929688 235.585938 295.011719 256.085938 L 295.296875 256.371094 L 187.507812 364.164062 " fill-opacity="1" fill-rule="nonzero"/></g><path fill="#5e2cd3" d="M 116.261719 253.78125 L 163.472656 252.644531 L 187.363281 281.085938 L 302.832031 209.984375 L 187.363281 324.882812 L 116.261719 253.78125 " fill-opacity="1" fill-rule="nonzero"/><g clip-path="url(#8e88b4a259)"><path fill="#5e2cd3" d="M 75.003906 250.375 C 75.605469 244.980469 76.546875 239.664062 77.804688 234.445312 C 40.136719 181.386719 45.816406 108.867188 92.582031 62.101562 C 144.921875 9.761719 230.085938 9.761719 282.425781 62.101562 C 305.53125 85.207031 319.101562 115.003906 321.394531 147.125 C 326.253906 151.765625 330.472656 155.609375 333.671875 158.457031 C 333.863281 139.660156 330.519531 121.289062 323.703125 103.816406 C 316.34375 84.960938 305.300781 68.082031 290.875 53.65625 C 263.261719 26.046875 226.550781 10.839844 187.503906 10.839844 C 148.457031 10.839844 111.746094 26.046875 84.136719 53.65625 C 58.316406 79.472656 43.167969 113.765625 41.476562 150.210938 C 39.796875 186.410156 51.480469 221.714844 74.367188 249.617188 C 74.578125 249.871094 74.792969 250.121094 75.003906 250.375 " fill-opacity="1" fill-rule="nonzero"/></g></svg>